<svg id="Layer_1" data-name="Layer 1" xmlns="http://www.w3.org/2000/svg" viewBox="0 0 63.83 46.01"><defs><style>.cls-1{fill:#fff;}</style></defs><title>audio</title><path class="cls-1" d="M49.52,20.11a2.36,2.36,0,0,0-3.85,2.72,15.93,15.93,0,0,1,0,18.34,2.36,2.36,0,0,0,.56,3.28,2.39,2.39,0,0,0,1.36.43,2.34,2.34,0,0,0,1.92-1,20.59,20.59,0,0,0,0-23.78Zm0,0" transform="translate(0 -8.99)"/><path class="cls-1" d="M57.7,12.65a2.36,2.36,0,1,0-3.85,2.72,28.83,28.83,0,0,1,0,33.24,2.36,2.36,0,0,0,.56,3.28,2.39,2.39,0,0,0,1.36.43,2.34,2.34,0,0,0,1.92-1,33.55,33.55,0,0,0,0-38.68Zm0,0" transform="translate(0 -8.99)"/><path class="cls-1" d="M37.16,9.59a4.36,4.36,0,0,0-4.41,0l-.16.1L19.49,18.75a2.35,2.35,0,0,0,2.67,3.87L34.66,14V50L22.73,41.36a2.38,2.38,0,0,0-1.37-.44H10.11a5.4,5.4,0,0,1-5.4-5.4V28.45a5.4,5.4,0,0,1,5.4-5.4,2.35,2.35,0,0,0,0-4.71A10.13,10.13,0,0,0,0,28.45v7.06A10.13,10.13,0,0,0,10.11,45.63H20.6l12,8.65.2.13A4.44,4.44,0,0,0,35,55a4.28,4.28,0,0,0,2.2-.6,4.37,4.37,0,0,0,2.2-3.81V13.4a4.34,4.34,0,0,0-2.2-3.81Zm0,0" transform="translate(0 -8.99)"/></svg>