<?xml version="1.0" encoding="utf-8"?>
<!-- Generator: Adobe Illustrator 20.1.0, SVG Export Plug-In . SVG Version: 6.00 Build 0)  -->
<svg version="1.1" id="Layer_1" xmlns="http://www.w3.org/2000/svg" xmlns:xlink="http://www.w3.org/1999/xlink" x="0px" y="0px"
	 viewBox="0 0 64 64" style="enable-background:new 0 0 64 64;" xml:space="preserve">
<style type="text/css">
	.st0{fill:#FFFFFF;}
</style>
<g>
	<g>
		<path class="st0" d="M62.4,21.3l-3.1-3.1c-0.5-0.5-1.2-0.8-2-0.8c-0.7,0-1.5,0.3-2,0.8l-0.4,0.4c-4.1-2.7-8.9-4.2-13.9-4.2h-0.1
			c-3.1,0-6.1,0.6-9,1.6l5.5-5.5c0.7,0.3,1.4,0.5,2.2,0.5c1.4,0,2.7-0.5,3.7-1.5c1-1,1.5-2.3,1.5-3.7c0-1.4-0.5-2.7-1.5-3.7
			c-1-1-2.3-1.5-3.7-1.5c-1.4,0-2.7,0.5-3.7,1.5c-1,1-1.5,2.3-1.5,3.7c0,0.8,0.2,1.6,0.5,2.2L25.1,18l-0.3-0.3
			c-0.5-0.5-1.2-0.8-2-0.8c-0.7,0-1.4,0.3-2,0.8l-3.2,3.1c-0.5,0.5-0.8,1.2-0.8,2c0,0.7,0.3,1.4,0.8,2l0.3,0.3l-9.8,9.8
			c-0.7-0.3-1.5-0.5-2.2-0.5c-1.4,0-2.7,0.5-3.7,1.5c-2,2-2,5.3,0,7.3c1,1,2.3,1.5,3.7,1.5c1.4,0,2.7-0.5,3.7-1.5
			c1.6-1.6,1.9-4,1-5.9l5.5-5.5c-1.1,2.8-1.6,5.9-1.6,9c0,5,1.5,9.8,4.2,13.9l-0.5,0.5c-1.1,1.1-1.1,2.9,0,4l3.1,3.1
			c0.5,0.5,1.2,0.8,2,0.8c0.7,0,1.4-0.3,2-0.8l3.1-3.1c1.1-1.1,1.1-2.9,0-4l-3.1-3.1c-0.5-0.5-1.2-0.8-2-0.8c-0.7,0-1.5,0.3-2,0.8
			l-0.1,0.1c-4.5-7.3-4.3-16.7,0.6-23.9c0.3,0.1,0.7,0.2,1,0.2c0.7,0,1.4-0.3,2-0.8l3.1-3.1c0.8-0.8,1-2,0.6-3
			c7.1-4.9,16.6-5.1,23.9-0.6l-0.2,0.2c-1.1,1.1-1.1,2.9,0,4l3.1,3.1c0.5,0.5,1.2,0.8,2,0.8c0.7,0,1.4-0.3,2-0.8l3.1-3.1
			C63.5,24.2,63.5,22.4,62.4,21.3L62.4,21.3z M25.4,57.4l-2.2,2.2l-2.2-2.2l2.2-2.2L25.4,57.4z M38.4,4.7c0.3-0.3,0.8-0.5,1.2-0.5
			c0.5,0,0.9,0.2,1.2,0.5c0.3,0.3,0.5,0.8,0.5,1.2c0,0.5-0.2,0.9-0.5,1.2c-0.3,0.3-0.8,0.5-1.2,0.5c-0.5,0-0.9-0.2-1.2-0.5
			c-0.3-0.3-0.5-0.8-0.5-1.2C37.9,5.5,38.1,5,38.4,4.7L38.4,4.7z M7.2,40.8c-0.3,0.3-0.8,0.5-1.2,0.5c-0.5,0-0.9-0.2-1.2-0.5
			c-0.7-0.7-0.7-1.8,0-2.4c0.3-0.3,0.8-0.5,1.2-0.5c0.5,0,0.9,0.2,1.2,0.5C7.9,39.1,7.9,40.2,7.2,40.8L7.2,40.8z M22.8,25l-2.2-2.2
			l2.2-2.2l2.2,2.2L22.8,25z M57.3,25.5l-2.2-2.2l2.2-2.2l2.2,2.2L57.3,25.5z M57.3,25.5"/>
	</g>
</g>
</svg>
