<?xml version="1.0" encoding="utf-8"?>
<!-- Generator: Adobe Illustrator 20.1.0, SVG Export Plug-In . SVG Version: 6.00 Build 0)  -->
<svg version="1.1" id="Layer_1" xmlns="http://www.w3.org/2000/svg" xmlns:xlink="http://www.w3.org/1999/xlink" x="0px" y="0px"
	 viewBox="0 0 64 64" style="enable-background:new 0 0 64 64;" xml:space="preserve">
<style type="text/css">
	.st0{fill:#FFFFFF;}
</style>
<g>
	<path class="st0" d="M42.8,62.8c0-0.3,0-0.6-0.2-0.9l-5.3-7.7c0.1,0.1,0.3,0.1,0.4,0c0.2-0.1,0.2-0.4,0.1-0.6L36,51
		c-0.1-0.2-0.4-0.2-0.6-0.1c-0.1,0.1-0.2,0.2-0.2,0.4l-5.4-7.9v-3.4c0.7-0.3,1.2-1,1.2-1.9c0-0.8-0.5-1.5-1.2-1.8V17.8
		c0-0.7-0.6-1.3-1.3-1.3c-0.7,0-1.3,0.6-1.3,1.3v18.4c-0.7,0.3-1.2,1-1.2,1.8c0,0.8,0.5,1.5,1.2,1.9v3.4l-5.4,7.9
		c0-0.1,0-0.3-0.2-0.4c-0.2-0.1-0.4-0.1-0.6,0.1l-1.8,2.6c-0.1,0.2-0.1,0.4,0.1,0.6c0.2,0.1,0.3,0.1,0.5,0l-5.3,7.8
		c-0.2,0.3-0.3,0.6-0.2,0.9c-1,0.1-1.8,0.3-1.8,0.6c0,0.4,1.4,0.6,3.1,0.6s3.1-0.3,3.1-0.6c0-0.2-0.7-0.4-1.6-0.6l10.3-15v11.2
		c0,0.2,0,0.3,0.1,0.4c-1.1,0.1-1.8,0.3-1.8,0.6c0,0.4,1.4,0.6,3.1,0.6c1.7,0,3.1-0.3,3.1-0.6c0-0.3-0.8-0.5-1.8-0.6
		c0-0.1,0.1-0.3,0.1-0.4V47.9l10.3,15c-1,0.1-1.6,0.3-1.6,0.6c0,0.4,1.4,0.6,3.1,0.6c1.7,0,3.1-0.3,3.1-0.6
		C44.6,63.1,43.9,62.9,42.8,62.8L42.8,62.8z M42.8,62.8"/>
	<path class="st0" d="M24.6,15.1h7.9c1,0,1.8-0.8,1.8-1.8V9.2c0-1-0.8-1.8-1.8-1.8h-7.9c-1,0-1.8,0.8-1.8,1.8v4.1
		C22.8,14.3,23.6,15.1,24.6,15.1L24.6,15.1z M25.4,9h6.3c0.4,0,0.6,0.3,0.6,0.6c0,0.4-0.3,0.6-0.6,0.6h-6.3c-0.4,0-0.6-0.3-0.6-0.6
		C24.8,9.3,25.1,9,25.4,9L25.4,9z M25.4,9"/>
	<path class="st0" d="M50.1,0h-6.3c-0.4,0-0.7,0.2-0.9,0.4c-0.2,0-0.3,0.1-0.4,0.2L36,5.8c-0.3,0.2-0.5,0.6-0.5,1v9
		c0,0.4,0.2,0.8,0.5,1l6.6,5.2c0.1,0.1,0.3,0.2,0.4,0.2c0.2,0.2,0.6,0.4,0.9,0.4h6.3c0.7,0,1.3-0.6,1.3-1.3v-20
		C51.4,0.6,50.9,0,50.1,0L50.1,0z M48.9,20h-3.7V2.6h3.7V20z M48.9,20"/>
</g>
</svg>
