<?xml version="1.0" encoding="utf-8"?>
<!-- Generator: Adobe Illustrator 20.1.0, SVG Export Plug-In . SVG Version: 6.00 Build 0)  -->
<svg version="1.1" id="Layer_1" xmlns="http://www.w3.org/2000/svg" xmlns:xlink="http://www.w3.org/1999/xlink" x="0px" y="0px"
	 viewBox="0 0 64 64" style="enable-background:new 0 0 64 64;" xml:space="preserve">
<style type="text/css">
	.st0{fill:#FFFFFF;}
</style>
<g>
	<g>
		<path class="st0" d="M40.5,34.9c1,0,1.8-0.5,2.3-1.4l8.6-14.7c0.4-0.8,0.4-1.9,0-2.7L42.8,1.4C42.3,0.5,41.4,0,40.5,0H23.4
			c-1,0-1.9,0.5-2.3,1.4L12.6,16c-0.4,0.8-0.4,1.9,0,2.7l8.4,14.8c0.5,0.8,1.4,1.4,2.3,1.4h6v8.4c0,1.5,1.2,2.7,2.7,2.7
			c3.4,0,6.3,2.8,6.3,6.3c0,3.4-2.8,6.3-6.3,6.3c-3.4,0-6.3-2.8-6.3-6.3c0-1.5-1.2-2.7-2.7-2.7c-1.5,0-2.7,1.2-2.7,2.7
			c0,6.4,5.2,11.5,11.5,11.5c6.4,0,11.5-5.2,11.7-11.5c0-5.4-3.8-10.1-8.8-11.3v-6.1L40.5,34.9L40.5,34.9z M39,29.5H28.1L40.5,8
			l5.4,9.4L39,29.5z M25,5.3h10.9L23.4,26.8l-5.4-9.4L25,5.3z M25,5.3"/>
	</g>
</g>
</svg>
