<?xml version="1.0" encoding="utf-8"?>
<!-- Generator: Adobe Illustrator 20.1.0, SVG Export Plug-In . SVG Version: 6.00 Build 0)  -->
<svg version="1.1" id="Layer_1" xmlns="http://www.w3.org/2000/svg" xmlns:xlink="http://www.w3.org/1999/xlink" x="0px" y="0px"
	 viewBox="0 0 47.6 64" style="enable-background:new 0 0 47.6 64;" xml:space="preserve">
<style type="text/css">
	.st0{fill:#FFFFFF;}
</style>
<title>staging</title>
<path class="st0" d="M45.4,29.5h-5.2v-3.3c0-4.4-3.5-7.9-7.9-7.9h-5.9c-4.4,0-7.9,3.5-7.9,7.9v3.3H12v-6.3l4.7-4.7
	c0.9-0.8,1-2.3,0.1-3.2c-0.8-0.9-2.3-1-3.2-0.1c0,0-0.1,0.1-0.1,0.1l-5.3,5.3c-0.4,0.4-0.7,1-0.7,1.6v7.3H2.2c-1.2,0-2.2,1-2.2,2.3
	C0,33,1,34,2.2,34h5.2v27.7c0,1.2,1,2.2,2.3,2.2l0,0h28.1c1.2,0,2.2-1,2.2-2.2V34h5.2c1.2,0,2.2-1,2.2-2.2S46.6,29.5,45.4,29.5
	L45.4,29.5z M22.9,26.2c0-1.9,1.5-3.4,3.4-3.4h5.9c1.9,0,3.4,1.5,3.4,3.4v3.3H22.9V26.2z M12,59.5V34h23.6v25.5H12z"/>
<path class="st0" d="M29.2,16.2c4.5,0,8.1-3.6,8.1-8.1S33.7,0,29.2,0s-8.1,3.6-8.1,8.1l0,0C21.2,12.5,24.8,16.2,29.2,16.2z
	 M29.2,4.5c2,0,3.6,1.6,3.6,3.6s-1.6,3.6-3.6,3.6c-2,0-3.6-1.6-3.6-3.6S27.3,4.5,29.2,4.5L29.2,4.5z"/>
</svg>
