<?xml version="1.0" encoding="utf-8"?>
<!-- Generator: Adobe Illustrator 20.1.0, SVG Export Plug-In . SVG Version: 6.00 Build 0)  -->
<svg version="1.1" id="Layer_1" xmlns="http://www.w3.org/2000/svg" xmlns:xlink="http://www.w3.org/1999/xlink" x="0px" y="0px"
	 viewBox="0 0 64 64" style="enable-background:new 0 0 64 64;" xml:space="preserve">
<style type="text/css">
	.st0{fill:#FFFFFF;}
</style>
<g>
	<path class="st0" d="M18.9,28.9h4.4c1,0,1.8-0.8,1.8-1.8v-4.4c0-1-0.8-1.7-1.8-1.7h-4.4c-1,0-1.8,0.8-1.8,1.7v4.4
		C17.1,28.1,17.9,28.9,18.9,28.9L18.9,28.9z"/>
	<path class="st0" d="M32.6,23.7H38c1.2,0,2.1-1,2.1-2.1v-5.3c0-1.2-0.9-2.1-2.1-2.1h-5.4c-1.2,0-2.1,1-2.1,2.1v5.3
		C30.5,22.7,31.4,23.7,32.6,23.7L32.6,23.7z"/>
	<path class="st0" d="M36.6,41.7h-5.4c-1.1,0-2.1,0.9-2.1,2.1v5.4c0,1.2,1,2.1,2.1,2.1h5.4c1.2,0,2.1-0.9,2.1-2.1v-5.4
		C38.7,42.6,37.7,41.7,36.6,41.7L36.6,41.7z"/>
	<path class="st0" d="M45.8,37v-6.5c0-1.4-1.1-2.6-2.5-2.6h-6.5c-1.4,0-2.6,1.1-2.6,2.6V37c0,1.4,1.1,2.5,2.6,2.5h6.5
		C44.7,39.5,45.8,38.4,45.8,37L45.8,37z"/>
	<path class="st0" d="M44.3,9.2h3c0.7,0,1.2-0.5,1.2-1.2V5c0-0.6-0.5-1.2-1.2-1.2h-3c-0.7,0-1.2,0.5-1.2,1.2v3
		C43.1,8.6,43.6,9.2,44.3,9.2L44.3,9.2z"/>
	<path class="st0" d="M55.1,32h-3c-0.7,0-1.2,0.5-1.2,1.2v3c0,0.7,0.5,1.2,1.2,1.2h3c0.7,0,1.2-0.5,1.2-1.2v-3
		C56.2,32.5,55.7,32,55.1,32L55.1,32z"/>
	<path class="st0" d="M30.4,35.3c0.6,0,1-0.4,1-1v-2.6c0-0.5-0.5-1-1-1h-2.5c-0.1,0-0.1,0-0.1,0.1v-21L8.1,0.1H2.7v63.8h5.5
		l19.6-24.2v-4.4c0.1,0,0.1,0.1,0.1,0.1L30.4,35.3L30.4,35.3z M25.3,38.8L10.5,57V4l14.7,7.3L25.3,38.8L25.3,38.8z"/>
	<path class="st0" d="M48.6,41.7H46c-0.6,0-1,0.5-1,1v2.6c0,0.6,0.5,1,1,1h2.5c0.6,0,1-0.4,1-1v-2.6C49.6,42.1,49.1,41.7,48.6,41.7
		L48.6,41.7z"/>
	<path class="st0" d="M57.9,12.4h-8.7c-1.9,0-3.4,1.5-3.4,3.4v8.7c0,1.9,1.5,3.4,3.4,3.4h8.7c1.9,0,3.4-1.5,3.4-3.4v-8.7
		C61.3,14,59.8,12.4,57.9,12.4L57.9,12.4z"/>
</g>
</svg>
